<?xml version="1.0" standalone="no"?>
<!DOCTYPE svg PUBLIC "-//W3C//DTD SVG 20010904//EN"
 "http://www.w3.org/TR/2001/REC-SVG-20010904/DTD/svg10.dtd">
<svg version="1.0" xmlns="http://www.w3.org/2000/svg"
 width="225.000000pt" height="225.000000pt" viewBox="0 0 225.000000 225.000000"
 preserveAspectRatio="xMidYMid meet">

<g transform="translate(0.000000,225.000000) scale(0.100000,-0.100000)"
fill="#000000" stroke="none">
<path d="M1682 2099 c-118 -67 -256 -226 -321 -370 l-28 -62 -64 -2 c-35 -1
-75 -6 -89 -9 -22 -6 -29 0 -60 51 -46 75 -169 198 -250 251 -70 45 -196 99
-207 89 -3 -4 -6 -82 -6 -175 0 -234 32 -384 104 -488 l29 -42 -23 -41 c-18
-34 -20 -44 -10 -60 7 -11 10 -27 7 -36 -4 -11 0 -18 12 -21 20 -5 50 -57 36
-62 -27 -9 -99 -54 -151 -95 -77 -60 -153 -162 -188 -252 -15 -38 -28 -72 -30
-74 -5 -8 -45 33 -60 62 -7 15 -15 48 -16 72 -1 25 -5 45 -9 45 -4 0 -23 -16
-43 -35 -27 -27 -35 -44 -35 -70 0 -22 -8 -43 -20 -55 -24 -24 -25 -51 -5 -90
21 -41 47 -52 119 -51 l62 0 12 -55 c16 -76 72 -189 137 -276 30 -40 55 -76
55 -80 0 -16 64 -39 125 -45 76 -7 85 3 60 63 -15 36 -15 40 9 88 14 28 28 63
31 78 7 37 57 92 126 138 31 22 99 72 151 113 l94 73 -19 -55 c-28 -83 -21
-218 16 -292 57 -117 149 -188 278 -215 194 -41 395 61 482 243 29 62 32 76
32 168 0 89 -3 107 -28 161 -34 73 -111 152 -182 188 -93 46 -189 53 -303 24
-33 -8 -49 -8 -70 2 l-27 12 35 13 c149 53 250 147 295 275 9 25 23 50 32 57
9 7 13 19 9 29 -3 9 -1 22 4 30 12 14 -7 60 -34 83 -13 11 -12 17 5 55 40 90
51 172 46 321 -3 77 -12 172 -20 210 -8 39 -18 87 -21 108 -4 20 -12 37 -19
37 -7 0 -36 -14 -65 -31z m67 -36 c15 -54 29 -162 37 -278 5 -76 2 -122 -10
-190 -18 -95 -43 -165 -58 -165 -5 0 4 -18 21 -39 37 -46 39 -61 9 -61 l-22 0
22 -16 c24 -17 30 -44 9 -44 -8 0 -20 -19 -27 -42 -38 -128 -128 -225 -260
-279 -66 -27 -77 -35 -63 -43 44 -24 138 -99 138 -109 0 -28 -60 -42 -177 -42
-67 0 -111 -3 -102 -8 11 -6 1 -19 -43 -56 -81 -66 -179 -141 -238 -180 -27
-19 -67 -50 -87 -69 l-37 -35 -10 26 c-6 15 -12 27 -13 27 -2 0 -3 -35 -3 -77
0 -65 -4 -86 -26 -123 -25 -45 -25 -46 -7 -75 10 -17 18 -34 18 -39 0 -13 -99
3 -139 22 -19 9 -30 17 -24 19 6 2 -10 25 -36 51 -54 55 -112 154 -135 231
-22 76 -21 204 4 282 39 125 142 246 274 319 l59 33 44 -51 c72 -83 209 -153
300 -151 33 0 28 3 -33 19 -40 10 -95 31 -124 45 -68 35 -147 115 -177 182
-17 36 -28 50 -39 46 -19 -7 -18 26 2 48 15 16 14 17 -5 12 -28 -7 -27 11 4
66 27 46 30 55 16 47 -28 -18 -96 142 -116 274 -8 52 -15 159 -15 238 l0 143
23 -6 c12 -3 56 -23 97 -42 61 -30 94 -56 180 -142 106 -107 166 -191 137
-191 -8 0 -25 -9 -38 -21 -21 -18 -21 -20 -4 -14 11 4 54 16 95 27 73 18 111
18 224 2 46 -7 42 10 -4 19 -16 4 -30 11 -30 17 0 17 49 110 96 181 66 100
228 246 276 249 4 0 12 -17 17 -37z m53 -1201 c193 -95 263 -303 169 -505 -27
-58 -110 -157 -131 -157 -5 0 0 15 10 33 67 114 89 257 56 371 -21 70 -100
155 -178 191 -56 25 -158 55 -193 55 -11 0 -28 7 -38 14 -16 13 -15 15 20 24
21 6 79 10 129 9 80 -2 99 -7 156 -35z m-1448 -76 c12 -40 26 -63 52 -84 30
-25 35 -35 32 -63 l-3 -34 -62 -3 c-56 -3 -66 0 -88 22 -27 27 -33 64 -13 84
9 9 14 7 24 -6 11 -14 12 -9 7 35 -4 40 -2 59 11 78 9 14 18 25 21 25 2 0 11
-24 19 -54z m1339 -120 c50 -61 94 -143 112 -211 15 -58 20 -219 9 -261 -13
-47 -174 -82 -291 -63 -116 19 -203 82 -271 197 -25 44 -27 54 -27 167 0 110
2 124 27 170 14 28 36 56 47 62 24 15 54 6 47 -14 -28 -73 -38 -133 -33 -207
7 -112 20 -145 76 -204 65 -68 154 -111 261 -127 25 -4 47 -8 50 -10 3 -1 23
0 45 5 33 6 37 8 20 15 -72 30 -236 199 -284 294 -21 40 -56 155 -65 212 l-6
36 47 7 c27 3 64 14 83 24 l35 17 41 -33 c23 -19 57 -53 77 -76z"/>
<path d="M1445 1380 c-21 -23 -13 -39 10 -20 10 8 30 11 56 7 39 -5 40 -5 23
14 -22 25 -66 24 -89 -1z"/>
<path d="M1009 1351 c-13 -11 -21 -23 -17 -27 4 -4 14 -1 23 6 9 8 28 10 52 6
l38 -6 -24 20 c-29 25 -42 25 -72 1z"/>
<path d="M1234 1300 c-36 -11 -69 -44 -59 -60 3 -6 29 -22 56 -35 53 -27 65
-56 30 -75 -32 -17 -60 -11 -77 15 -9 14 -21 25 -26 25 -5 0 1 -14 13 -31 20
-28 25 -30 63 -25 22 3 63 7 90 8 40 3 52 8 69 30 11 15 18 30 15 34 -4 3 -14
-8 -23 -26 -14 -28 -20 -31 -53 -28 -32 3 -37 7 -40 30 -3 22 4 32 37 53 22
15 42 33 45 40 13 34 -78 64 -140 45z"/>
</g>
</svg>
